<mxfile host="app.diagrams.net" modified="2024-03-18T23:34:11.365Z" agent="Mozilla/5.0 (Windows NT 10.0; Win64; x64) AppleWebKit/537.36 (KHTML, like Gecko) Chrome/122.0.0.0 Safari/537.36" version="24.0.7" etag="h3Rj5Tn1jTge45C1qxxY" type="github">
  <diagram name="Page-1" id="q_wk-59kLOEbfhNNsTpj">
    <mxGraphModel>
      <root>
        <mxCell id="0" />
        <mxCell id="1" parent="0" />
      </root>
    </mxGraphModel>
  </diagram>
</mxfile>
